<svg width="30" height="34" viewBox="0 0 30 34" fill="none" xmlns="http://www.w3.org/2000/svg">
<path d="M18.809 15.7011L21.2351 11.7011L27.7742 21.5975L27.7774 23.4968L27.7561 10.4276C27.7406 10.1082 27.566 9.81593 27.2875 9.64357L15.5144 3.06342C15.2392 2.93185 14.8898 2.93337 14.6149 3.06758C14.5777 3.08557 14.5428 3.10527 14.5096 3.12676L14.4685 3.15181L3.04096 9.58631L2.99666 9.60589C2.93964 9.63134 2.88194 9.66374 2.82792 9.70136C2.6112 9.8523 2.46735 10.0756 2.42081 10.326C2.4138 10.364 2.40863 10.4026 2.40625 10.4417L2.42421 21.0917L8.51513 11.9185C9.28205 10.7022 10.9528 10.3104 12.5038 10.3317L14.3242 10.3784L3.59817 27.0925L4.86255 27.7998L15.717 10.3954L20.5147 10.3784L9.68827 28.222L14.2 30.7436L14.739 31.0448C14.967 31.1348 15.2359 31.1394 15.4658 31.0587L27.4042 24.3362L25.1218 25.6213L18.809 15.7011ZM19.7346 28.6548L15.1778 21.7056L17.9594 17.1191L23.944 26.2845L19.7346 28.6548Z" fill="#2D374B"/>
<path d="M15.1797 21.7047L19.7364 28.654L23.9459 26.2836L17.9613 17.1182L15.1797 21.7047Z" fill="#28A0F0"/>
<path d="M27.7769 23.4959L27.7738 21.5966L21.2346 11.7002L18.8086 15.7002L25.1213 25.6204L27.4037 24.3352C27.6276 24.1585 27.7631 23.8992 27.7773 23.6195L27.7769 23.4959Z" fill="#28A0F0"/>
<path d="M0.375 25.2879L3.59816 27.0926L14.3241 10.3785L12.5038 10.3319C10.9527 10.3106 9.2819 10.7024 8.51505 11.9187L2.42413 21.0919L0.375 24.1511V25.2879Z" fill="white"/>
<path d="M20.5155 10.3779L15.7177 10.3949L4.86328 27.7992L8.65725 29.9218L9.689 28.2215L20.5155 10.3779Z" fill="white"/>
<path d="M29.7992 10.3541C29.7591 9.37915 29.2158 8.48665 28.3649 7.96705L16.4375 1.30227C15.5957 0.890437 14.5442 0.889908 13.7009 1.30201C13.6012 1.35087 2.10188 7.83105 2.10188 7.83105C1.94272 7.90523 1.78942 7.99356 1.64524 8.09386C0.885599 8.62285 0.422562 9.44493 0.375 10.3481V24.1507L2.42413 21.0915L2.40624 10.4414C2.40862 10.4024 2.41365 10.3641 2.4208 10.3263C2.46714 10.0757 2.61112 9.85214 2.8279 9.70107C2.882 9.66345 14.5778 3.08528 14.615 3.06723C14.8898 2.93308 15.2393 2.93149 15.5145 3.06306L27.2875 9.64308C27.566 9.81545 27.7406 10.1077 27.7561 10.4271V23.62C27.7419 23.8997 27.6281 24.159 27.4042 24.3357L25.1218 25.6208L23.9441 26.284L19.7346 28.6544L15.4658 31.0582C15.2358 31.1389 14.967 31.1343 14.739 31.0443L9.68826 28.2216L8.65651 29.9219L13.1954 32.4612C13.3455 32.5441 13.4792 32.6177 13.589 32.6775C13.7589 32.77 13.8747 32.832 13.9156 32.8513C14.2382 33.0036 14.7024 33.0922 15.1207 33.0922C15.5041 33.0922 15.8781 33.0237 16.2319 32.8891L28.6312 25.9118C29.3428 25.376 29.7615 24.568 29.7992 23.6927V10.3541Z" fill="#96BEDC"/>
</svg>
