<svg width="32" height="28" viewBox="0 0 32 28" fill="none" xmlns="http://www.w3.org/2000/svg">
<g clip-path="url(#clip0_335_2650)">
<path d="M24.1667 8.52497C23.5833 8.19064 22.8333 8.19064 22.1667 8.52497L17.5 11.2832L14.3333 13.0384L9.75 15.7966C9.16667 16.1309 8.41667 16.1309 7.75 15.7966L4.16667 13.6235C3.58333 13.2891 3.16667 12.6205 3.16667 11.8683V7.68915C3.16667 7.02049 3.5 6.35184 4.16667 5.93393L7.75 3.84437C8.33333 3.51005 9.08333 3.51005 9.75 3.84437L13.3333 6.01751C13.9167 6.35184 14.3333 7.02049 14.3333 7.77273V10.5309L17.5 8.69213V5.85034C17.5 5.18169 17.1667 4.51303 16.5 4.09512L9.83333 0.166762C9.25 -0.167566 8.5 -0.167566 7.83333 0.166762L1 4.1787C0.333333 4.51303 0 5.18169 0 5.85034V13.7071C0 14.3757 0.333333 15.0444 1 15.4623L7.75 19.3906C8.33333 19.725 9.08333 19.725 9.75 19.3906L14.3333 16.716L17.5 14.8772L22.0833 12.2026C22.6667 11.8683 23.4167 11.8683 24.0833 12.2026L27.6667 14.2921C28.25 14.6265 28.6667 15.2951 28.6667 16.0474V20.2265C28.6667 20.8951 28.3333 21.5638 27.6667 21.9817L24.1667 24.0712C23.5833 24.4056 22.8333 24.4056 22.1667 24.0712L18.5833 21.9817C18 21.6474 17.5833 20.9787 17.5833 20.2265V17.5518L14.4167 19.3906V22.1489C14.4167 22.8175 14.75 23.4862 15.4167 23.9041L22.1667 27.8324C22.75 28.1668 23.5 28.1668 24.1667 27.8324L30.9167 23.9041C31.5 23.5697 31.9167 22.9011 31.9167 22.1489V14.2086C31.9167 13.5399 31.5833 12.8712 30.9167 12.4533L24.1667 8.52497Z" fill="#8247E5"/>
</g>
<defs>
<clipPath id="clip0_335_2650">
<rect width="32" height="28" fill="white"/>
</clipPath>
</defs>
</svg>
