<svg id="Layer_1" data-name="Layer 1" xmlns="http://www.w3.org/2000/svg" viewBox="0 0 269.24 88.78"><defs><style>.cls-1{fill:#9bbcfb;}.cls-2{fill:#445983;}</style></defs><polygon class="cls-1" points="8.56 9.68 30.95 9.68 25.45 59.08 14.27 59.08 8.56 9.68"/><ellipse class="cls-1" cx="19.75" cy="73.14" rx="9.08" ry="9.16"/><polygon class="cls-1" points="48.05 9.68 70.43 9.68 64.94 59.08 53.75 59.08 48.05 9.68"/><ellipse class="cls-1" cx="59.24" cy="73.14" rx="9.08" ry="9.16"/><path class="cls-2" d="M104.52,23.13h10.82c6.84,0,10.2,3.82,10.2,10.85v22.2c0,7-3.36,10.85-10.2,10.85H104.52Zm6.84,6.27V60.76h3.86c2.17,0,3.48-1.13,3.48-4.27V33.67c0-3.14-1.31-4.27-3.48-4.27Z"/><path class="cls-2" d="M133.06,33.67c0-7,3.67-11,10.39-11s10.38,4,10.38,11V56.49c0,7-3.67,11-10.38,11s-10.39-4-10.39-11Zm6.84,23.26c0,3.14,1.37,4.33,3.55,4.33S147,60.07,147,56.93V33.23c0-3.14-1.37-4.33-3.54-4.33s-3.55,1.19-3.55,4.33Z"/><path class="cls-2" d="M168.51,23.13V57c0,3.14,1.37,4.27,3.54,4.27s3.55-1.13,3.55-4.27V23.13h6.46V56.56c0,7-3.48,11-10.2,11s-10.19-4-10.19-11V23.13Z"/><path class="cls-2" d="M210.92,33.23v1.56c0,4.52-1.37,7.34-4.42,8.78v.13c3.67,1.44,5.1,4.7,5.1,9.34v3.58c0,6.77-3.55,10.41-10.39,10.41H190.46V23.13h10.32C207.87,23.13,210.92,26.45,210.92,33.23ZM197.3,29.4V41H200c2.55,0,4.11-1.13,4.11-4.64V33.92c0-3.14-1.06-4.52-3.49-4.52Zm0,17.87V60.76h3.91c2.31,0,3.55-1.07,3.55-4.33V52.61c0-4.08-1.31-5.34-4.42-5.34Z"/><path class="cls-2" d="M219.44,23.13h6.83V60.76h11.26V67H219.44Z"/><path class="cls-2" d="M251.09,41.63h9.38V47.9h-9.38V60.76H262.9V67H244.25V23.13H262.9V29.4H251.09Z"/></svg>