<svg width="255" height="73" viewBox="0 0 255 73" fill="none" xmlns="http://www.w3.org/2000/svg">
<path d="M0 0H22.39L16.89 49.4H5.71L0 0Z" fill="#9BBCFB"/>
<path d="M11.1894 72.6198C16.2041 72.6198 20.2694 68.5187 20.2694 63.4598C20.2694 58.4009 16.2041 54.2998 11.1894 54.2998C6.17463 54.2998 2.10938 58.4009 2.10938 63.4598C2.10938 68.5187 6.17463 72.6198 11.1894 72.6198Z" fill="#9BBCFB"/>
<path d="M39.4902 0H61.8702L56.3802 49.4H45.1902L39.4902 0Z" fill="#9BBCFB"/>
<path d="M50.6796 72.6198C55.6944 72.6198 59.7596 68.5187 59.7596 63.4598C59.7596 58.4009 55.6944 54.2998 50.6796 54.2998C45.6649 54.2998 41.5996 58.4009 41.5996 63.4598C41.5996 68.5187 45.6649 72.6198 50.6796 72.6198Z" fill="#9BBCFB"/>
<path d="M95.9609 13.4492H106.781C113.621 13.4492 116.981 17.2692 116.981 24.2992V46.4992C116.981 53.4992 113.621 57.3492 106.781 57.3492H95.9609V13.4492ZM102.801 19.7192V51.0792H106.661C108.831 51.0792 110.141 49.9492 110.141 46.8092V23.9892C110.141 20.8492 108.831 19.7192 106.661 19.7192H102.801Z" fill="#445983"/>
<path d="M124.5 23.9902C124.5 16.9902 128.17 12.9902 134.89 12.9902C141.61 12.9902 145.27 16.9902 145.27 23.9902V46.8102C145.27 53.8102 141.6 57.8102 134.89 57.8102C128.18 57.8102 124.5 53.8102 124.5 46.8102V23.9902ZM131.34 47.2502C131.34 50.3902 132.71 51.5802 134.89 51.5802C137.07 51.5802 138.44 50.3902 138.44 47.2502V23.5502C138.44 20.4102 137.07 19.2202 134.9 19.2202C132.73 19.2202 131.35 20.4102 131.35 23.5502L131.34 47.2502Z" fill="#445983"/>
<path d="M159.949 13.4492V47.3192C159.949 50.4592 161.319 51.5892 163.489 51.5892C165.659 51.5892 167.039 50.4592 167.039 47.3192V13.4492H173.499V46.8792C173.499 53.8792 170.019 57.8792 163.299 57.8792C156.579 57.8792 153.109 53.8792 153.109 46.8792V13.4492H159.949Z" fill="#445983"/>
<path d="M202.36 23.5492V25.1092C202.36 29.6292 200.99 32.4492 197.94 33.8892V34.0192C201.61 35.4592 203.04 38.7192 203.04 43.3592V46.9392C203.04 53.7092 199.49 57.3492 192.65 57.3492H181.9V13.4492H192.22C199.31 13.4492 202.36 16.7692 202.36 23.5492ZM188.74 19.7192V31.3192H191.44C193.99 31.3192 195.55 30.1892 195.55 26.6792V24.2392C195.55 21.0992 194.49 19.7192 192.06 19.7192H188.74ZM188.74 37.5892V51.0792H192.65C194.96 51.0792 196.2 50.0092 196.2 46.7492V42.9292C196.2 38.8492 194.89 37.5892 191.78 37.5892H188.74Z" fill="#445983"/>
<path d="M210.879 13.4492H217.709V51.0792H228.969V57.3192H210.879V13.4492Z" fill="#445983"/>
<path d="M242.529 31.9492H251.909V38.2192H242.529V51.0792H254.339V57.3192H235.689V13.4492H254.339V19.7192H242.529V31.9492Z" fill="#445983"/>
</svg>
